# xmcd
#
# Track frame offsets:
#	150
#	14517
#	26130
#	38927
#	53877
#	71692
#	82825
#	94497
#	110297
#	123467
#
# Disc length: 1848 seconds
#
# Revision: 1
# Processed by: cddbd v1.4PL0 Copyright (c) Steve Scherf et al.
# Submitted via: EasyCDDAExtractor 5.0.6
#
DISCID=8407360a
DTITLE=Slim Whitman - Pure Country
DYEAR=2000
DGENRE=Country
TTITLE0=That Silver-haired daddy of mine
TTITLE1=i remember you
TTITLE2=four walls
TTITLE3=blue bayou
TTITLE4=the last farewell
TTITLE5=mr. songman
TTITLE6=when
TTITLE7=angeline
TTITLE8=dreamin
TTITLE9=can't help falling in love with you
EXTD=
EXTT0=
EXTT1=
EXTT2=
EXTT3=
EXTT4=
EXTT5=
EXTT6=
EXTT7=
EXTT8=
EXTT9=
PLAYORDER=
